<mxfile host="Electron" modified="2024-03-30T17:34:15.426Z" agent="Mozilla/5.0 (Windows NT 10.0; Win64; x64) AppleWebKit/537.36 (KHTML, like Gecko) draw.io/24.1.0 Chrome/120.0.6099.109 Electron/28.1.0 Safari/537.36" etag="vbVt37NP2mjQmGNll-lk" version="24.1.0" type="device">
  <diagram name="1" id="mUJIeAtG4FjD4gp9zTXd">
    <mxGraphModel dx="2074" dy="836" grid="0" gridSize="10" guides="1" tooltips="1" connect="1" arrows="1" fold="1" page="1" pageScale="1" pageWidth="1100" pageHeight="850" background="#114B5F" math="0" shadow="0">
      <root>
        <mxCell id="WmIoQeZvhGoZ6jdl9bgJ-0" />
        <mxCell id="WmIoQeZvhGoZ6jdl9bgJ-1" parent="WmIoQeZvhGoZ6jdl9bgJ-0" />
        <mxCell id="WmIoQeZvhGoZ6jdl9bgJ-6" value="&lt;font style=&quot;font-size: 18px&quot;&gt;Linux Server&lt;br&gt;&lt;/font&gt;" style="fontColor=#E4FDE1;verticalAlign=top;verticalLabelPosition=bottom;labelPosition=center;align=center;html=1;outlineConnect=0;fillColor=#F45B69;strokeColor=#028090;gradientDirection=north;strokeWidth=2;shape=mxgraph.networks.server;" parent="WmIoQeZvhGoZ6jdl9bgJ-1" vertex="1">
          <mxGeometry x="51" y="105" width="71" height="75" as="geometry" />
        </mxCell>
        <mxCell id="WmIoQeZvhGoZ6jdl9bgJ-10" style="edgeStyle=orthogonalEdgeStyle;rounded=1;orthogonalLoop=1;jettySize=auto;html=1;strokeColor=none;strokeWidth=3;labelBackgroundColor=#114B5F;fontColor=#E4FDE1;" parent="WmIoQeZvhGoZ6jdl9bgJ-1" source="WmIoQeZvhGoZ6jdl9bgJ-7" edge="1">
          <mxGeometry relative="1" as="geometry">
            <mxPoint x="137" y="171" as="sourcePoint" />
            <mxPoint x="651" y="307" as="targetPoint" />
          </mxGeometry>
        </mxCell>
        <mxCell id="kBDgzdkwuHouWEQdG4b3-0" value="&lt;font style=&quot;font-size: 18px&quot;&gt;Windows Server&lt;br&gt;&lt;/font&gt;" style="fontColor=#E4FDE1;verticalAlign=top;verticalLabelPosition=bottom;labelPosition=center;align=center;html=1;outlineConnect=0;fillColor=#F45B69;strokeColor=#028090;gradientDirection=north;strokeWidth=2;shape=mxgraph.networks.server;" parent="WmIoQeZvhGoZ6jdl9bgJ-1" vertex="1">
          <mxGeometry x="51" y="223" width="71" height="75" as="geometry" />
        </mxCell>
        <mxCell id="kBDgzdkwuHouWEQdG4b3-2" value="&lt;font style=&quot;font-size: 15px;&quot;&gt;Office/Home Network&lt;/font&gt;" style="swimlane;whiteSpace=wrap;html=1;fontFamily=Helvetica;fontSize=11;labelBackgroundColor=none;fillColor=#d5e8d4;strokeColor=#82b366;" parent="WmIoQeZvhGoZ6jdl9bgJ-1" vertex="1">
          <mxGeometry x="12" y="73" width="259" height="400" as="geometry" />
        </mxCell>
        <mxCell id="kBDgzdkwuHouWEQdG4b3-9" value="Printer" style="fontColor=#FFFFFF;verticalAlign=top;verticalLabelPosition=bottom;labelPosition=center;align=center;html=1;outlineConnect=0;fillColor=#CCCCCC;strokeColor=#6881B3;gradientColor=none;gradientDirection=north;strokeWidth=2;shape=mxgraph.networks.printer;fontFamily=Helvetica;fontSize=18;" parent="kBDgzdkwuHouWEQdG4b3-2" vertex="1">
          <mxGeometry x="171" y="303" width="58" height="54" as="geometry" />
        </mxCell>
        <mxCell id="kBDgzdkwuHouWEQdG4b3-11" value="&lt;font style=&quot;font-size: 18px;&quot;&gt;NAS&lt;/font&gt;" style="sketch=0;pointerEvents=1;shadow=0;dashed=0;html=1;strokeColor=none;fillColor=none;labelPosition=center;verticalLabelPosition=bottom;verticalAlign=top;align=center;outlineConnect=0;shape=mxgraph.veeam2.nas;fontFamily=Helvetica;fontSize=11;fontColor=#E4FDE1;" parent="kBDgzdkwuHouWEQdG4b3-2" vertex="1">
          <mxGeometry x="175" y="36" width="58" height="57" as="geometry" />
        </mxCell>
        <mxCell id="kBDgzdkwuHouWEQdG4b3-16" value="&lt;font color=&quot;#ffffff&quot; style=&quot;font-size: 18px;&quot;&gt;Desktop&lt;/font&gt;" style="fontColor=#0066CC;verticalAlign=top;verticalLabelPosition=bottom;labelPosition=center;align=center;html=1;outlineConnect=0;fillColor=#CCCCCC;strokeColor=#6881B3;gradientColor=none;gradientDirection=north;strokeWidth=2;shape=mxgraph.networks.pc;fontFamily=Helvetica;fontSize=11;" parent="kBDgzdkwuHouWEQdG4b3-2" vertex="1">
          <mxGeometry x="21" y="283" width="100" height="70" as="geometry" />
        </mxCell>
        <mxCell id="sWgGaBNZ5fhU2ft0woAF-0" style="edgeStyle=orthogonalEdgeStyle;shape=connector;curved=1;rounded=1;comic=0;orthogonalLoop=1;jettySize=auto;html=1;dashed=1;labelBackgroundColor=#114B5F;strokeColor=#d6b656;strokeWidth=3;fontFamily=Helvetica;fontSize=11;fontColor=#E4FDE1;endArrow=classic;endFill=1;fillColor=#fff2cc;flowAnimation=1;gradientColor=#ffd966;" parent="WmIoQeZvhGoZ6jdl9bgJ-1" source="kBDgzdkwuHouWEQdG4b3-3" edge="1">
          <mxGeometry relative="1" as="geometry">
            <mxPoint x="165" y="271" as="targetPoint" />
          </mxGeometry>
        </mxCell>
        <mxCell id="kBDgzdkwuHouWEQdG4b3-3" value="&lt;font style=&quot;font-size: 17px&quot;&gt;Firewall&lt;br&gt;&lt;/font&gt;" style="fontColor=#E4FDE1;verticalAlign=top;verticalLabelPosition=bottom;labelPosition=center;align=center;html=1;outlineConnect=0;fillColor=#F45B69;strokeColor=#028090;gradientDirection=north;strokeWidth=2;shape=mxgraph.networks.firewall;" parent="WmIoQeZvhGoZ6jdl9bgJ-1" vertex="1">
          <mxGeometry x="221" y="221" width="100" height="100" as="geometry" />
        </mxCell>
        <mxCell id="kBDgzdkwuHouWEQdG4b3-13" value="" style="edgeStyle=orthogonalEdgeStyle;rounded=1;orthogonalLoop=1;jettySize=auto;html=1;strokeColor=none;strokeWidth=3;labelBackgroundColor=#114B5F;fontColor=#E4FDE1;" parent="WmIoQeZvhGoZ6jdl9bgJ-1" target="WmIoQeZvhGoZ6jdl9bgJ-7" edge="1">
          <mxGeometry relative="1" as="geometry">
            <mxPoint x="137" y="171" as="sourcePoint" />
            <mxPoint x="651" y="307" as="targetPoint" />
          </mxGeometry>
        </mxCell>
        <mxCell id="kBDgzdkwuHouWEQdG4b3-14" style="edgeStyle=orthogonalEdgeStyle;shape=connector;curved=1;rounded=1;comic=0;orthogonalLoop=1;jettySize=auto;html=1;entryX=1;entryY=0.5;entryDx=0;entryDy=0;entryPerimeter=0;labelBackgroundColor=#114B5F;strokeColor=#028090;strokeWidth=3;fontFamily=Helvetica;fontSize=11;fontColor=#E4FDE1;endArrow=none;endFill=0;fillColor=#F45B69;" parent="WmIoQeZvhGoZ6jdl9bgJ-1" source="WmIoQeZvhGoZ6jdl9bgJ-7" target="kBDgzdkwuHouWEQdG4b3-3" edge="1">
          <mxGeometry relative="1" as="geometry" />
        </mxCell>
        <mxCell id="WmIoQeZvhGoZ6jdl9bgJ-7" value="&lt;h2&gt;&lt;b&gt;&lt;br&gt;&lt;br&gt;The Internet&lt;/b&gt;&lt;/h2&gt;" style="html=1;outlineConnect=0;fillColor=#F45B69;strokeColor=#028090;gradientDirection=north;strokeWidth=2;shape=mxgraph.networks.cloud;fontColor=#E4FDE1;" parent="WmIoQeZvhGoZ6jdl9bgJ-1" vertex="1">
          <mxGeometry x="465" y="92.5" width="170" height="100" as="geometry" />
        </mxCell>
        <mxCell id="MMfDueoCJfVepA3NiRcQ-0" style="edgeStyle=orthogonalEdgeStyle;shape=connector;curved=1;rounded=1;comic=0;orthogonalLoop=1;jettySize=auto;html=1;entryX=0.98;entryY=0.58;entryDx=0;entryDy=0;entryPerimeter=0;dashed=1;labelBackgroundColor=#114B5F;strokeColor=#d6b656;strokeWidth=3;fontFamily=Helvetica;fontSize=11;fontColor=#E4FDE1;endArrow=none;endFill=0;fillColor=#fff2cc;gradientColor=#ffd966;flowAnimation=1;" parent="WmIoQeZvhGoZ6jdl9bgJ-1" source="5IPjkREzYSuVpFkmWHGu-0" target="5IPjkREzYSuVpFkmWHGu-8" edge="1">
          <mxGeometry relative="1" as="geometry" />
        </mxCell>
        <mxCell id="5IPjkREzYSuVpFkmWHGu-0" value="&lt;font color=&quot;#ffffff&quot; style=&quot;font-size: 18px;&quot;&gt;You&lt;/font&gt;" style="fontColor=#0066CC;verticalAlign=top;verticalLabelPosition=bottom;labelPosition=center;align=center;html=1;outlineConnect=0;fillColor=#CCCCCC;strokeColor=#6881B3;gradientColor=none;gradientDirection=north;strokeWidth=2;shape=mxgraph.networks.laptop;fontFamily=Helvetica;fontSize=11;" parent="WmIoQeZvhGoZ6jdl9bgJ-1" vertex="1">
          <mxGeometry x="954" y="289" width="100" height="55" as="geometry" />
        </mxCell>
        <mxCell id="5IPjkREzYSuVpFkmWHGu-3" value="" style="shape=image;verticalLabelPosition=bottom;verticalAlign=top;imageAspect=0;aspect=fixed;image=data:image/png,iVBORw0KGgoAAAANSUhEUgAAAQcAAAEsCAYAAADOwHZSAAAACXBIWXMAAAsTAAALEwEAmpwYAAAABmJLR0QA/wD/AP+gvaeTAAAmAUlEQVR42u2dB7gURfb2C5Egikg2IAgoIgpIWAxkEETEQPDTFUFZUEQBEwouirDifyUaUddEEIQFCSoKKLsLiggCgpKjhEtOl3jhEvo7Z7ouDsN0T/fMdHd19/s+z+/ZxdvT06Hqne6qc04JATmlXMQVRB3ifuJJog/xFjGGmE4sIFYRG4gMYjdxgMgiTkmOEpnELmILsZ5YQfxMTCVGEkOJvxOdidZELaI4bgEEeasyRAuiJ/EvYgaxhjhGaB5ziFhGfE28QzxN3AbjgKD0Kg/xF/nrPIz4Uf6iaz5lB/EdMYR4mLhePu1AEJRAhYhmRH/if8QRHxuBVfbJV5VeRF0iH5oBBAmRVz5yDyaWyPd9LeQcJ+YQr8hxjPPQTKCwqJzQBwr5nfwwzCAhPGDKg6ntiBJoPlDQdK3QZw2WobOnxGniJ6I7cRmaFeRXlRf6VN9v6NSOwK9gs4gueKKA/KCCQp9Z+AWd11VOCj2Go43QZ3ggSBndSnyKMQQl2EkMkq9yEOTZU0J3jCMozQ/Eg8T5aK6QGypFDBT+DkYKG5uJHsTFaL6QE6pKfEZko7P5Fs4h4ejMK9GcoXToFqGH/KJzBYcTxCjiajRvKBnVJL5FRwq8SXwi9EQ2CEqoKsQUdJzQhWy/R1yO5g/FU2lirNCj8NBhwkmWHGzGwCUUUQGin9ALnKCDgJzU8k4CSV+hFs+Bb0FnAAb8KvQ0cihEulHoCTxBfodeI2dZhgs9YrCX/DW8V+hl5Hhq9jqhZ4lyabni8nGaa0pwrgJP93F+SCWiGtFA6OHJjxO9iTeEPrU7i9gk9BDmoF7P8fIaQQHWBcQAOUodlOCeb4h/Cj2luY5sxF5UV+IoxLJEI2lCbB7/EXrKdVBiJJ4QqFwVSHGjXedzI+AB027yUfcSH137S4mmQq95+RWxx8f3YY584oICoCLy0dpvjXA58S7xgAheRB//+laUTxjDfTjuw69tXKkqL7qXf8W/Vtt80uAOEpOFnvJdOoT36gah5z/8R3Y+P9wzrtVxPbqZv5RPvvOqHrPA6cXvE40F6hBE6yKilXyNUj0NPku+6kE++QVSufoSv29/KA0hN26XpUFkniXhGQOVq3HzwHBJ3C511U06uYqVirj8+j0CtQVS0YXE34S+8paqT4LNcZvUewwdr2Bj4fl/LixbCrco7aos9GX+9il2z/lV9jWB6EolxOXAVijWQGYRd6GBuKL8REehz+6o1AZ4icKiuD3eiQetDirSGDiw6nOiBm6LJ+Lp0TuImQoZxEa0B/fFv8gDhDqj1W+KcE4/qioOjx8n1JitypLjJJBLg1JfCTUCYbgGAGLu1RXX5pisyI/IIIHQa0fFqxwtVOD14WOB6kF+Ej/af6OAQUyQYyRQmsXxC5uE93PZFXErfKv6xGKP2xBPw2KFrjSqidCz4ry6oTwbcjtuQ2DGq3h2Y4eH7WkDfmTSI0488qocPM+hc2AVApeCJ65dMUB4l8exl/gLbkPyYoc/5dHN+7dAOGwYxIlTc4V3yXaoNJWEnhLeTEVx+vBduPyhe9XoShzyoL1xvkhT3ALr6i28CXt9TwSr8nAx+ej6/4hnhB7W+wHxBfE/oc/8/E6sJv4gtkr4nXiV0BPYeMXw/8gnKb4+/5CvWi2FHk9QKEDXi+tmeDGrcVxeTyiB+nhwc7b52L157vwq4m5pquNkp3YzcnSfNBpeRep5oQ/e+nkNiMeF+xmgPEXeCt3fXHVcfrybIn9h/SJOMmssTZTj91Ve0HcX8SXxAlFb6HU2/CKeTfhVuBtqfRW6vxoGwb8MnX3yPnyT0NfWmC/8XeX5mHydYbOo7INrz2XgBrow9gVjUMgg+H1a5fJeXBWKaz+MEcGp3mw0+MuFbxoJtUOL+TVpL4wh+AYxkSio6PnWEnpR2SAbgll1bS6xr2plZ+7Ai2AMwTSIk3KwTDWVkQOJq0JoCEbw4CZPZRdX7F5xXsSnMIZgGQSPpjdU6Hx4YK6D0IvCYOFe8xF8Lq/XWqhVb7NLimM/MAZFDCJD6ElbKojTzZ8T/imXrxJrhR4xq0qVbp46Pgpj8K9BrBRqFGHhQKGXhL9XelKpLmdXoUbqcx1hr4YljEERg5gnvK/hx/ET/ye8zSgNKpxVyVOiF3l8j6+XT6cwBp8YxLdEAQ+Pj9eG5EV1jqATu5LdyEvTeRn2Xlo+pcIYFDcIDuH1KsWaB82ewpOCJ2wn2nrYHvkp9WcYg7oGMVh4F0xzK7EEndRzOAKzkkdtgJ9Wp8IY1DIITjLq4dH381w8z31jSlIduDgQF3K50IP2wE+tI2AM6siLmnyc8/C4UG/FJXB21GVrD9pGLqFeABfkkrjk+QJ0Pt8wTWBdEcgFcXRcFjqcL2c17kbzhZwQT5WNRyfzPTzFnBfNGUqXahLrff6rOVcOnHJdiO5Cn/ZrJgd0ORuUS77xKD8H9VQTeg0JLn7KS8q3E3qZuf7EaPlKddDH14NL35VFs4ZSFXek4z5p9Bye/bXQl17rKDu+k1WuuBRcQ/mqxeuFfucj08j0aLASCoAKC3XWWTRr4Lxu6NNEVaFGwRSeyruZ+DvxvUguOclNuH5GPjR3yKoqKPoawbEUs4WeU8BVpXP74Fry+309oYc4/yrUfc3A1COUUPz+rVolJi4EwwVhgrB4L49pcIBShmLXeA3GISAz8QDdYYXGD96VA4NBFAeR3Sb0XBhVrvl2OTALQWeJR+SzFWig/OjNi9DkCdG15zDnxxR5leOkuYboDlCOnhfe50bMIe4I+X3gMRSeYl3m8b3g2an70C3CLR7dH+JxQ+Tpv/q4FefcF14ezssQdV7AuStuRXg1zMPGx9N8WII9sZoKb2c5nsEtCKduEe4H7WTIMQXI3usG/4q7vfQfL7pzNS4/DMKNMutcjOYiXPKkVVLosxswBigwBsGBSzfgMqdNHFS1DMYA+dkguIRdB1xaR8Rh2i/KJzIYA+Qrg+B6khVwSR0X1+7cDGOA/GIQ7ws1Fl0Ji4oIPQENxgApaxAcXYeZCO/E047ZMAZINYPg5dnL47J5Lo4d+QPGAKliEFxgpQAulzLiauQLYQyQ1wYxXHi3wpYdcUjyVcTtQq9u9U+hZ32OICYKPYybS8n9RMwgvpDn9o7Q1/t8UuhZlKWEGkVlEonjSb6HMUBeGcQ/FTYCTj1+lvg38ZtIb0UmTrHmkObPiW5Cr9GgorjQzFgYA+SmQXAG51OKHR839ifkL/4e4X4Owg7ZER8VahWlYaN8E8YAuWEQ3PEeUOR4istfbtUW2GHz/FHoNRouUeRa9YQxQE6roMffz+MbbYQ+r58t1K/yfIyYQLQQevWnMN87CHJEHFTFg4IbfWAIZrUwHxH+GMCFIOXFo+5cqWq7j00hlo3S6BBFCkFJvj7wehR7A2QK8Qq6dhL+mBqFICXEy9D9HmBTiGUeUR23HYKMxcVMPguRKcTWbHxP6CuNQRAUJZ4ezQypMUSzS+iL90JQ6MWDch/CFM6JkxgoMKsBhVgVQza2YBfO9SiNZgKFTfcLdZaBU5l9Aov9QCHSc8L7Fbb8BNeJRC1OKNDi+fzB6OxJ83c0ISiI4oVxP0MHT5m3hfc5GhCUVo1Bx04bb6E5QUFSdTm4hs6dGlsFSv5DMAjHUqiXCj2N+lWhJ0A9TLQimgh94drWQs+e5FoRXO1qErFC6EvTwxggKCAGsZ+YIvTKVVVSfF/noKQaRA/iW6Gv6AVjgCAfGQTHT4ySTwK5HTwPHmS9ixhPZMEYIEhdg+BHf44HuNCD8ylEdCE2pPmctsEYIBhE8iwWeuk4Fab4+NWjPbESxgBB3hkEd562ip4XG1VnkXyxGhgDBCVhEBxOPJS42AfnVpT4SNgLF2djuBbNAoLsGQSvA3mTD8+vsbBWBxPGAEFJGAQvWHOJj8+PK119D2OAoPQZBD+S9wjI+fFYxP+J+MVmYQwQZMMgeOGaBwN4jl2FXjcSxgBBSRjEJqEHMgVVPP36B4wBguwrL84RgiAIgiAIgiAIgiAIgiAIgiAIgiAIgiAIgiAIgiAIgiAIgiAIgiAIgiAIgiAIgiAIgiAIgiBHVI5oZJOGSdAgCeonQT2b1E2COi5ROwlutcktSXBzEtyUBLWS4C82qWmDkmEyhlzEFmIPAMAUXjFsRZjMgcuTHxXuLd8OgJ/JhDkAAGAOMAcAYA5GYw4wBwCssR/mAACAOcAcAIA5wBwAgDnYUhZuOgAwB5gDADAHmAMAMAeYAwAwB5gDADAHmAMAMAeYQ9DJlSuXVrBgQe2yyy7TrrnmGq1ixYpaqVKlIv8N18dX4dNliKJEPphDyKhUqZKWmZmZEjNnztQqVKigDRw4UPvqq6+0ZcuWaYcPH9aMtG3bNm369Onas88+q5UuXdrw2MaMGZPysfXq1Suyr1mzZqW8r/bt24etfewWeuo2m8Rh4oj898/ETGII0UHotThKwhwCxg033KClqnnz5mmPPPJIUp89ffq0NnLkyMhTReyxTZkyJeVj69u3b2RfCxcuTHlfnTp1Qps5FzaNPfIVZC0xgWhPlIU5wBxSMocc7dixQ6tWrRrMIRgckk8YGcTbxG0wB5hDStq7d69WsmRJmEPw4CeLXfI1pDLMAeaQlEaPHg1zCC4npFGslGMVygmJVwqbQ3Z2tlakSBGYQzhmQvhpoivMwafm0KZNm4Q0atTI1By+++67yHhC48aNtY4dO2ozZsww/c62bdsmNIfXX3/d0rHxbEwic3j88cct7ats2bJoM86MT7BRvABz8JE58HSj1f2YmUP//v3PiYHg6U8j9e7dO6E51KxZ09Z5mplDsWLF0Ba8h/vlZuJemEOIzYEZOnSo4faDBw+GOYQXnuWYRZSCOSj+WjFnzhxT+vXrZ9sc8uTJo82fP99w+27dulkaczh27JgpDz74oCVzsLKvevXqob24x2liH/EKzMHHA5Ljxo1LaA7Lly+PjCN07dpVGzRokLZq1SrTfTZr1iwtA5IPPfSQZXNIpAYNGqC9eBNgxQvrXAJzCKg52BGHVl9wwQUwBxDNAaIlzCHk5tC9e/e0xTnAHAIXSPUvp83hCC60muYwadIkLW/evDAHYDajMRPmEDJz4MhIHqhMZ24FzCGQnCS2wxwUMAeOMDSDg4PSYQ6VK1e2lZXZo0ePSIc1IzpPw8wc+BwS7euSSy5Be1HvKaIIzMHncQ5WtGTJkrNeKRDnACyGYBeHOfg8CIqjIr/++mtTg4iNh4A5AAtsJS6DOfg8QrJEiRLarl27TA2Cj8eKOdx8883a+eefb4nzzjvP1BwuvfRSy/tik0O7UY6DRCGYg8/Dp1u2bGlqDj/88MOZDpiOrEzWbbfdlpasTBbXwkS7UTaBC+bg99yK8ePHm3ZA3hfMASRBRqrmcBgX0Vtz4IrUXLDVSJs2bdLy5csHcwDJTHN+C3PweVZmly5dTDsh52HAHJRIgPJjPsYQmEMa4JLyRolQTpoDD+4tXbrUNMfigw8+SJs5TJw4EeZgH86MfJ0YTfyXWC30KtM8hbhZ4Vd0LqnfFOaQJjj92k1zYJo2bWraEblqFGdopsMc+Pu4zBvMwRY7DPoQzwyUJ54i5srOmKHYkwb387x2zeEQzOBcuIxbbFRglSpVLH+epwONoguNyqvxrETdunUNP8evPFxPMlH0YiIKFy58Zqwj1X0VKFAA5nCueEUsXqvia/k0kanIK9FcmAMA3ppDtHITD4g/y9F7Hf/wNMwBADXMIVo95FNEpscGcRHMAYD0ko7sR37vf0M+SZzyaHpzMswBAPXMIUdXyE6634PzYGOqD3MAQE1zyBE/RfzhwbksgDkAoLY5sNoRG10+Fx73eCjRgR3ETQfAEtuEc6oh9MKxbsZGbIQ5AKC+ObAuIJa6eD483tEK5gCA+ubAKiz0Va7cOqeVMAcA0lNlyQ3VJja4dE4cmHUbzAEAf5gD61GhJ3O5cV4zjA7iAG56OOCaEJx1yolXrVu3jlSZdpJ7771Xa9y4cSRPpVChQjAH+/rQpR9vw7JyMIcAc91112kvvPCCNnPmzMgCuF6K085HjBgRMY2cJf5gDgn1tQvnxWXtn4A5hACuDXHfffdps2fP1lTVkSNHIjUlatSoAXMwV1Vipwvn9jvMIeDwqlZbtmzR/KLTp09rY8eO1cqVK+eH65shvNFY4XwhGZ4hqQBzCGh5O5WfFBIpOzs7UgSHy+bDHOLmYWx3+NyyiedgDgHj5Zdf1k6cOKEFQbzQT8GCBWEO52qwC4OTc2EOAYGXy+MFd4Om5cuXa+XLl4c5nK18LphDVuyXZqKj+Y+iRYtGFrwJqjIyMiKl9mAOZ6m77MBOjjvUgzn4GJ4G5IV2g6558+ZFYjNgDmd0jXC21BwXgvkHzMHHjBw5UguLRo0apdK13yK810qHz3E6zMGndO7cWQub2rdvD3P4U32Fs4lZmb4xh1xEWaIhcbn8t+2wYaIK0ZioQJyXTGARcSPRgChmYfvcSX6PGdWrV/c8yjEZ7d+/X1u0aFFkWb9Tp07Z/vzmzZu1/Pnzwxx01XI454LTuC9V3hwuJiYTWhQjZUe1uo8Hie0x+1jIcQE29lGcWBL1+Wyil8G2VxFfEkeIQ8RYaWrpuB52BiA5uGjSpEmRHAcOMOK1Ki688MK0wPviuIrHHntMW7NmjeEx8N9atGhx1jnwsYwZM8a2QXAIOMzhjJyMeeD6knWUN4ePYzp1Du0tfr61weeZHcSlFvfzucE+7o7ZrhCxIc52bEZ5UrwWd9xxh63O9OSTT7pyj3iRnXXr1sXNo7j88ssNP/fFF1/YfvrIWYzHQzYrYg7/Es5VjOKVsTrkfNF+FY2BH8kPGHTKuRZfAzJMzIF5w8J+ypt8flTMtu1Mtq2Z4vWYNm2a5Y7EMxlu3iuObIzVu+++a/oZfqKwK35SgTlE1Fz+wjt1noOVNgd+Z88y6GiniMIJPl8/gTEwWyyMYXQ0+fy4mG2fNdn2jhSuxRVXXGHrXX3o0KGu3qshQ4accwyDBw82/UyTJk1sm8PUqVNhDrpqO/xqMUppcxAx7/mx3JPgs0MtmANTPcF+Rpl89uWYbesYbMdjFJelcB2eeOIJW52oV69ert0jXvdz586d5xzDypUrTQcRP/roI9vmkJWVFRnz8LBNblLEHMo7bA4/K28OY006Zv8En11r0RxeSbCfVSafbR1n+zdjtjnJnTvF6zBu3Dhbnahnz54J91myZEmtatWqSVGrVi2tZcuW2qBBg7R9+/YZHge/CsVmW1588cXagAEDIgOmyahVq1YwByEudHg6c5ny5vCMScecYfK5Ky0aAzPLZD+FEnz2SoPP3Uq8KF8zKqXhOthNwbZiDq+++qor05icEMbTmFOmTNF++ukn7cCBAyntb+DAgTAHXbsdPM8NOV+yT1VzqGbSMfeajBc8ZMMcjhH5DfbTyORz61wMlbYrlcwh3fryyy+9bJMbFTIHJyMldyhvDjwoud+kg5Y3ep812P6EwX+vb7Cfnibf/bFJ0NadxECiL1EjxWtwzTXX+NYc+NWBnxjatm2r3XLLLZG6lcOGDdOOHz+e9D4XLlwIc9A128HzPKC8OQgZUGTUQR8w+Mxqg+2NTKOP0Vy8yXe3M/jMm3FmVjqlcP5169b1rTlwqHfcJ8Jq1SJl4pLR6tWrYQ66PnTwPNf5whzMxh2GxNn+MoNtd8vw53h/+6/Bd28y+e7ScbavbLDtQTl+kcz5N2jQwJfmMGfOHNPv79OnT1L75fEXmENEcx0OoVbfHMzGHX6Is/39BttOkIFVe+L8LUvmX0Tvp4TJ9643ONZOJp+pGzJzSBTn0LBhw6TrPMAcIlrn4Hlu94U5mI07HJZ/j97+PYNtu8i/TzT4e52Y/dxp0tE/NTjWV5J4BfLKHF566SXt0KFDtrAz/fjcc8+Zfv/111/vR3P4QyFz2B/614pE4w6xCVTLDbarKP/ezeDvL8Xsp6/JdxrldvT1kTkkAwc1ccLVO++8kzBiE+bgqAo5HD79m2/MwWzcoUNM9mS8bbZHTXsajQt8H/Od35h8Z5mQmkM0/fr1gzl4J/qtiyzq69R5/pTzRXtVNwezcYf3LGRhfh6T0LU7zjacYp03ajpyl8G+NpgcZ5jM4dprr4U5eKcGMhbBqfMc7htz4HGFTINOtyBqu7cNtnnU4hTlrfLvZUw6+XCYg6Up1oCawwZFzOEe4VypBU4F7+cbc2C+MklqypcgUSs2WKqrwXYvyr+3MenkD8McInUVOBgJ5uCZJjl4jlz+/q++MgezdOi/yBTu03H+tjlOmPUNBvuZLv8+wOS7rgqIOdSsWTMSpGSH3r17a8OHD4/MXIR0tkIVczjk4DnyQGdNX5lDdZOO10VWZYr3t5EGIc67DaZG88igqHj72pjgGP1kDk7HOQTUHNYrYAy3y7EPJ0OnC/nKHMzGHT6V0ZLx/vaIwf4mGGx/i0kFqhEwB5iD93pX6KXcnDrH3dFf5gtzMBt3WCrrNNqZdnzSxGg0m0YDc4A5uCinF9Sd5ktzeNakbNwpG2HOQtZZMBrgTGa8AeYQCnNY57ExcFn6nQ6e33Hi6egv3OMXc6huo06DWVp1oliGeGyycHwwB5iDw3qbOOHwYOSNvjQHs3GHeLRNsL/xNvY1EuaghDnwwjghNYdrHA58Oisb03fmYDbuEI9Ei8l0sbGvDjAHJcxh+fLlXra/tR6aw2T52O/aeIPvzOFZi515tYV9XWfDHMp6ZA7JpDYH2Rzmzp0bRnO4VcZYOHluR4iHY794t5/MoZrFzvyOhX3xuEOGhX1tENbW6HTCHHg5O5jDnxo9enQYzWEeccrhc+P4hiK+Ngejgi2xNLK4v2FpMhqnzKFr1662OxDXaki039dff92X5mDl3AJmDvc4PEORw3/jfbmvzEGY1ILMYZ+wvthuEwvmYHW1qqdM9tEkyXNN5hd+1KhRCffLi+w6qTfffNP0+5s3b57Ufm+++eawmcN6F86LnxpaB8Icqqfpl17INO0tJvvaZlK63o7RlEryXO0uaMPauHFjpKS90T4LFiyobd++3VFzWLBgQdqfXPiYc+XK5WXbW+OyMcwnsl04ryNGB7DLb+bADDLohHT3tGI299XMoGw9J3LdY/OVZ1ESYdeGU7e5c2t79+5NqnN++OGHkc/H7jNPnjza2LFjXVljwujVonbt2kmVp+dz8rjduWkOH7j0OsGMCJQ55JIVolbKQi1/EHQ1tZJJ7o9rOfAqWjtlUtZ/bYxbiJjCtGPlfjbIDM/8SR4Tr/WQinjar3v37lrTpk21Zs2aac8884y2du1azU1988032sMPPxyp//DAAw9E1sg8efJkUvviV5GQmENXh5OrouFKcJUDZQ5h4LXXXtMgXYsXL/b6lYJZ7YIxNCW2unhOM80OBuagIBdddFHSrxRBFD/9KHBfnDaHJsQqF89nr8zXgDn4CY5VgHR99913qtyX1Q6/SmS4fD4/JzoomINi8GzCrl274AqkrKwsrUqVKqrcm1UOGcP7Lo4xRD81NIA5+IwxY8bAFaR4EV6F7o0T5jDPxVmJhEFPMAeF+dvf/gZHkBowYIBq9yed5tBSzn5ke3AePENR2spB7kSnVINatWolvfp00DR58mTtvPPOU+0erUyDKdQhfvHwR/ko8U+rBwtzUIB69eppBw8ehCuQhgwZEjeAy+fmwKtUfSXHFk55eA677Bw0zMFjOLjn6NGjoTeFY8eORQKmFL5XK5N8Uhgm9EItxz0+fjaGZjAHn8QyDBs2zNbq1UHVnDlztBo1aqh+z6yYQy7iTuJfMm+J+9dJBY79GDHarrPtQEd1OfQ7Vy6tRYsW2oYNG0JvCitWrNDuvvtuv9y7WHMoSVQR+loS9xFfC71s/EaZzKTSsW9K5l0I5uBi/ALnOqxevTrUhnDgwIFI8td9992n6tiCWQf7ldgsTWCHDHXmp4NDCh83z06UgjkoRrly5bRu3bpp3377rbZ///7Ie3VYOHz4sLZjxw5t1apVkfMfOnSodvvtt2t58+ZF23A32Kl9sqOo23EBAQgk/DTzVirzrjAHAIIHD0BOSzUoA+YAQLDg2ZGF6QjjhDkAEBxOy0ArAXMAAEQbw6J0ZoXBHAAIxqtE2lcBhzkA4P/Bx/nCAcEcAPD3dOVU4ZC24QJ7A0cHKpiWDPwDRz4OFg4qkObAKyP1798/LpwenbNd3759z/l769atLaVYG+2/Zs2acfMp+Jh4Jaj58+dHoiVZp06d0vbt26f9+uuv2scffxzJMzj//PPP+uxf//pXw++68sorz2xXtGjRyHF16NAhUrn6s88+0yZOnKhNnTo1UoeRV7n65JNPIgvK3H///ZHoTasVnTlb0ugYrBJ93UHKZBL3C4cVSHMwW2OyV69eZ7bjMN9YcZbkPffcY7p/3oeROnXqdNa21157rfbjjz9azj3Ytm1bpHMXK1Ys8vkvvvgi4fJw1apVSyrPYc2aNdrzzz+vlShRwvR8p0+fnnJORfR1BymNL/CyfMWFC4I5xBFXZDJLIbZqDrwwDecYJKOc5eatmAM/raQiPsYuXboYvubAHJSAU8A/ES5qK8zBeG3G0qVLJ20OxYsXT2ntiZzl5NwwhxzNmDFDy58/P8xBLY7IftpIuCyYg4mWLl0ad1FaK+bw9ttvJ92RTpw4ceZR301zYPHYROy4B8zBs6Cm/UQ/4ZFgDgk0fPjwcwbuEpkDL1ibylPDlClTznyX2+bAeuWVV2AO3qdac/GYS4WHgjlY0KOPPmrLHG688UbDv/OA56BBgyILy/J+X3311chsQnS5uOgB0XSYw4gRI7TRo0dr06ZN07Zu3ZrwfLmmZalSpSyZw549eyJl3hLx0EMPodMnZg/xP+IWoYAyYA6JxUvGR09RJjKHO++80/Dvv/zyS9xj5vENNo2NGzdGnjzSZQ7RTyE506q1a9eOTJ+a6YMPPrBkDhUrVkSnTg2uRs3FX78lbhQKCeZgUZs3b9YKFSpkyRyaNGliui9evMYoxqBAgQJn/Tvd5hD9PQsXLjSdUs05RpiDI+yX8QpcjLaCUFAwBxvipeq4wyQyhwoVKiTc16JFi7T27dtr+fLlMz0Xp8yBqVq1qukx8utRInPg/XNglRmVK1eGGegclHxDtBCKC+ZgU+3atUtoDmwg69evt7Q/XjSXIwij3/HdMgeGTcrsCScdA5Jt2rQJqxkclYOLXIR2goxqvEj4RFtgDvZ06NChSKhzoqnMVq1a2d43R0bGFmB12hzee++9hNcK5mApZTpTGgEbAleqHkc8quorA8whSXPgAcjdu3cn1RGiIyTfeust25//7bffzlp23mlz4KcWI73xxhswhz/ZKrOYuW7C78TPxAzibeJ54i7iOiK3CIhgDnG0bt067a677krZHPgpYPDgwbZXtdq5c+eZ1wynzYGnUo3EgVwwhzOsEiETzMHAHBI9cltNvMrJsViwYIGt/UyYMMHz14revXvDHGAOMId45sDTfStXrkzZHHLgZK73339fy8zMtLSv8uXLO24OnEKeKPjLzByWLVsWOUYz2BwD0K5WwhxgDmfMQch06Ozs7LSYQ3SMAc8EZGRkmO7rsccec9QcOEbBTDn7R5wDzAHmEMccmJdfftm2OfB0ZuHChU2Pk9fPNAtE4tkLp8yBozBnz55tGhads5YlzCHCirCZw2aYQ2Jz4I60ZMkSW+bAHZcrPr344otnCrfEo0+fPqYDgk6YQ9myZbWZM2eanseoUaMQPg1zgDkkMgemevXq2smTJy2bQ3TKNk+Njhs3TuvcubPWsGHDyL44v4Hf6c1eLXhAMB2JV7yYL583L2bLTwtcni5RyjhXsLJiDrNmzYrkYVjh6quvhjnAHIJnDoliAmJTtjnyMVU1b97ck5Rtjs8QaU7ZZtWpUwfm4CMthjlYNwfOg1ixYkVCczDLyrQqDsLiOAm3zYHTq2OTv2AOEX4Mmzn8DnOwbg5M/fr1E5oDv0Kkqo4dO7pe7IWjM4sUKeJImbgAmMOcsJnDdJiDPXNguDqU2fRjKlWgWB999NGZYq9umANHcPJ4ROwTA8zhLD4Pmzl8CHOwbw48+zBv3ry4UY/85FCmTBnt008/tTSAGS2uAt2jR4+zqkA7aQ58/jwrEW+tjWg41oPXvAi5ObwWNnN4gjgeNHPgd36ewotH9KI1HKIcb5voKkhm8L5iP8uFXnL+zhWoeYaC60DwGhHxxE8Z33//fcTQePvY7+jZs6fhueTMKPDYRN26dSPl5YcMGRL5G0curl27NlIWjr+DK0wtXrw4UpKOayzwsfNCOFav6U033WR4HFapVKmSn5edaxc2c6gi9Hr4KMThAvxEwO/0XAyGYw34/1tddQp4XvC1jAihMnDzAUDodDy9I/Qa+WgEAJzLCaJvWM2hvHxsQkMAIP6itcVEiDVCOiQaAwBnL1w7RIRchYReFRcNAoA/yRJQRE8KfcUdNAoA9IVmHoQt/KmRQq+ei8YBwgzHNQyFHZyr/wh9iS40EhBGuMz8RNiAsX4ijqChgJBxmJiE7p9YHwtET4JwjTEMQbe3rsekm2aj8YAAT1dmYfAxOeUlhhE7EAsBAgT/4PFK14PQxVPXFcQ/iNVCj6g8hAYGfAbH8uwTesm3l4nC6NbpV1mhp7C+SowmfiDmCn3twC1ohMBj1su2OJv4H/EZ0U++OlyJ7uud3kHjBB4zE91QTbWXg5hopMCrV4fm6IZqqpJAGDbwdvYBUlhL0EiBR8xC91Nb/aSDo7ECN+F6qPei+6mtEgLl54A3CVOQD/S0QIYncDcvogu6nX80A40WuAQSpnwovF4Ap1mHbuZPcW4GCtgCpziALuZvXSj0kNaTaMwgTXAS4FoiN7pXMPQPEcDl94AnGZW90Z2Cp3zEZGIrZjOADbgy2R/EWHSh4Ksc8Sjxb/l4uFf+71EAZFvYIwcbxxOdZJuBHNb/ByMvOtTYLpX8AAAAAElFTkSuQmCC;fontFamily=Helvetica;fontSize=11;fontColor=#E4FDE1;" parent="WmIoQeZvhGoZ6jdl9bgJ-1" vertex="1">
          <mxGeometry x="902" y="103.78" width="115.92" height="132.22" as="geometry" />
        </mxCell>
        <mxCell id="5IPjkREzYSuVpFkmWHGu-4" value="&lt;font style=&quot;font-size: 15px;&quot;&gt;Some Untrusted Network&lt;/font&gt;" style="swimlane;whiteSpace=wrap;html=1;fontFamily=Helvetica;fontSize=11;fontColor=default;labelBackgroundColor=none;strokeColor=#82b366;align=center;verticalAlign=middle;fontStyle=1;fillColor=#d5e8d4;" parent="WmIoQeZvhGoZ6jdl9bgJ-1" vertex="1">
          <mxGeometry x="836.5" y="73" width="246.5" height="357" as="geometry" />
        </mxCell>
        <mxCell id="5IPjkREzYSuVpFkmWHGu-9" style="edgeStyle=orthogonalEdgeStyle;shape=connector;curved=1;rounded=1;comic=0;orthogonalLoop=1;jettySize=auto;html=1;labelBackgroundColor=#114B5F;strokeColor=#028090;strokeWidth=3;fontFamily=Helvetica;fontSize=11;fontColor=#E4FDE1;endArrow=none;endFill=0;fillColor=#F45B69;" parent="WmIoQeZvhGoZ6jdl9bgJ-1" source="5IPjkREzYSuVpFkmWHGu-8" target="WmIoQeZvhGoZ6jdl9bgJ-7" edge="1">
          <mxGeometry relative="1" as="geometry">
            <Array as="points">
              <mxPoint x="724" y="286" />
              <mxPoint x="724" y="143" />
            </Array>
          </mxGeometry>
        </mxCell>
        <mxCell id="MMfDueoCJfVepA3NiRcQ-1" style="edgeStyle=orthogonalEdgeStyle;shape=connector;curved=1;rounded=1;comic=0;orthogonalLoop=1;jettySize=auto;html=1;entryX=0.737;entryY=0.714;entryDx=0;entryDy=0;entryPerimeter=0;dashed=1;labelBackgroundColor=#114B5F;strokeColor=#d6b656;strokeWidth=3;fontFamily=Helvetica;fontSize=11;fontColor=#E4FDE1;endArrow=none;endFill=0;fillColor=#fff2cc;gradientColor=#ffd966;flowAnimation=1;" parent="WmIoQeZvhGoZ6jdl9bgJ-1" source="5IPjkREzYSuVpFkmWHGu-8" target="sWgGaBNZ5fhU2ft0woAF-1" edge="1">
          <mxGeometry relative="1" as="geometry" />
        </mxCell>
        <mxCell id="5IPjkREzYSuVpFkmWHGu-8" value="&lt;font style=&quot;font-size: 17px&quot;&gt;Firewall&lt;br&gt;&lt;/font&gt;" style="fontColor=#E4FDE1;verticalAlign=top;verticalLabelPosition=bottom;labelPosition=center;align=center;html=1;outlineConnect=0;fillColor=#F45B69;strokeColor=#028090;gradientDirection=north;strokeWidth=2;shape=mxgraph.networks.firewall;" parent="WmIoQeZvhGoZ6jdl9bgJ-1" vertex="1">
          <mxGeometry x="785" y="236" width="100" height="100" as="geometry" />
        </mxCell>
        <mxCell id="sWgGaBNZ5fhU2ft0woAF-1" value="&lt;font color=&quot;#ffffff&quot; style=&quot;font-size: 20px;&quot;&gt;&lt;br&gt;&lt;/font&gt;" style="html=1;strokeWidth=1;shadow=0;dashed=0;shape=mxgraph.ios7.misc.vpn;fillColor=#007AFF;strokeColor=none;buttonText=;strokeColor2=#222222;fontColor=#222222;fontSize=8;verticalLabelPosition=bottom;verticalAlign=top;align=center;sketch=0;fontFamily=Helvetica;" parent="WmIoQeZvhGoZ6jdl9bgJ-1" vertex="1">
          <mxGeometry x="308" y="261" width="38" height="35" as="geometry" />
        </mxCell>
        <mxCell id="Eymyexk4t0NQcrKOlHZv-0" value="OpenVPN&lt;br&gt;IPSEC&lt;br&gt;WIREGUARD" style="text;html=1;strokeColor=none;fillColor=none;align=center;verticalAlign=middle;whiteSpace=wrap;rounded=0;fontSize=18;fontFamily=Helvetica;fontColor=#FFFFFF;fontStyle=1" parent="WmIoQeZvhGoZ6jdl9bgJ-1" vertex="1">
          <mxGeometry x="514" y="314" width="60" height="30" as="geometry" />
        </mxCell>
      </root>
    </mxGraphModel>
  </diagram>
</mxfile>
